<svg
    xmlns="http://www.w3.org/2000/svg" width="600" height="642">
<script type="text/javascript"><![CDATA[
function mo(elem) {    
    var  line =document.getElementsByTagName("line")
 
  elem.setAttribute("class","circle-active");
    for(i = 0; i < line.length; i++) {                                          
                                                                                
        if(line[i].getAttributeNode("targetId").value === elem.id) {            
            line[i].setAttribute("class","link-activeIncoming");
            document.getElementById(line[i].getAttributeNode("sourceId").value).setAttribute("class","circle-active");

        } 
        if(line[i].getAttributeNode("sourceId").value === elem.id) {            
            line[i].setAttribute("class","link-activeOutgoung");
            document.getElementById(line[i].getAttributeNode("targetId").value).setAttribute("class","circle-active");

        }
        if((line[i].getAttributeNode("targetId").value === elem.id)&&(line[i].getAttributeNode("sourceId").value === elem.id)) {            
            line[i].setAttribute("class","link-activeBoth");
             document.getElementById(line[i].getAttributeNode("targetId").value).setAttribute("class","circle-active");
             document.getElementById(line[i].getAttributeNode("sourceId").value).setAttribute("class","circle-active");
        }                                                                              
    }                                                                           
}

function mleave(elem) {                   
    elem.setAttribute("class","circle-pasive");                                      
    var line = document.getElementsByTagName("line");                           
    for(i = 0; i < line.length; i++) {                                          
                                                                                
        if(line[i].getAttributeNode("targetId").value === elem.id) {     
        document.getElementById(line[i].getAttributeNode("sourceId").value).setAttribute("class","circle-pasive");       
            line[i].setAttribute("class","link");       
        }
        if(line[i].getAttributeNode("sourceId").value === elem.id) {            
            document.getElementById(line[i].getAttributeNode("targetId").value).setAttribute("class","circle-pasive");
            line[i].setAttribute("class","link");       
        }                                                                          
    }                                                                           
}
]]></script>
  <style>
    circle { 
        stroke: #333;
        stroke-width: 1.5px;
        fill-opacity: 0.8; 
    } 
    .bubble text {
        text-anchor: middle;
        font-size: .5em;
    }
    .circle-active circle { 
        stroke: #e80000;  
        stroke-width: 3px; 
    } 
    .link { 
        stroke: #e0270b;  
        stroke: #555;  
        stroke-opacity: 0.7;  
        stroke-width: 1px;  
        stroke-dasharray:none;
    } 
    .link-activeIncoming {  
        stroke-opacity: 1; 
        stroke-width: 10;  
        stroke: #be1b38; 
    } 
    .link-activeOutgoung {  
        stroke-opacity: 1;  
        stroke-width: 10; 
        stroke: #1AC21D;  
    } 
    .link-activeBoth {  
        stroke-opacity: 1;  
        stroke: #1AC21D;  
        stroke-width: 10;  
        stroke-dasharray:5,10,5;}
  </style>
  <g transform="scale(0.5)">
    <g id="legend">
      <text transform="translate(30,30)" style="font-family:Verdana, Arial, DejaVu Sans;font-size:200%;text-decoration:underline;">Legend</text>
      <rect width="310" height="35" style="fill:#3182BD" transform="translate(30,45)"/>
      <text transform="translate(35,72)" style="font-family:Verdana, Arial;font-size:200%">Geography</text>
    </g>
  </g>
  <g class="links">
    <line class="link" targetId="0" sourceId="1" x1="361.95587703277243" y1="221.4962274736456" x2="278.6985939086632" y2="299.65852350114574"/>
    <line class="link" targetId="0" sourceId="2" x1="361.95587703277243" y1="221.4962274736456" x2="306.84956993377097" y2="409.6830546869418"/>
    <line class="link" targetId="3" sourceId="4" x1="307.5226858291668" y1="204.77893902501387" x2="389.3507082211231" y2="331.17770806872545"/>
    <line class="link" targetId="5" sourceId="6" x1="182.56927820360437" y1="320.68381412723306" x2="225.07684094606753" y2="282.16662623395763"/>
    <line class="link" targetId="7" sourceId="1" x1="348.12087111478274" y1="165.30055421265467" x2="278.6985939086632" y2="299.65852350114574"/>
    <line class="link" targetId="7" sourceId="4" x1="348.12087111478274" y1="165.30055421265467" x2="389.3507082211231" y2="331.17770806872545"/>
    <line class="link" targetId="7" sourceId="6" x1="348.12087111478274" y1="165.30055421265467" x2="225.07684094606753" y2="282.16662623395763"/>
    <line class="link" targetId="8" sourceId="9" x1="89.67267232341214" y1="131.75931153869575" x2="143.70241582666594" y2="151.724109450694"/>
    <line class="link" targetId="10" sourceId="1" x1="334.00036836140526" y1="315.7862294965206" x2="278.6985939086632" y2="299.65852350114574"/>
    <line class="link" targetId="10" sourceId="4" x1="334.00036836140526" y1="315.7862294965206" x2="389.3507082211231" y2="331.17770806872545"/>
    <line class="link" targetId="11" sourceId="12" x1="558.3460235398309" y1="354.0290971340268" x2="501.70556574898023" y2="364.501194539909"/>
    <line class="link" targetId="13" sourceId="1" x1="320.10275713869987" y1="260.6928897039621" x2="278.6985939086632" y2="299.65852350114574"/>
    <line class="link" targetId="13" sourceId="6" x1="320.10275713869987" y1="260.6928897039621" x2="225.07684094606753" y2="282.16662623395763"/>
    <line class="link" targetId="14" sourceId="4" x1="390.7113729284278" y1="124.63434043957989" x2="389.3507082211231" y2="331.17770806872545"/>
    <line class="link" targetId="15" sourceId="4" x1="444.94703140804313" y1="347.37388171212393" x2="389.3507082211231" y2="331.17770806872545"/>
    <line class="link" targetId="16" sourceId="1" x1="418.0256547575253" y1="236.25072510862148" x2="278.6985939086632" y2="299.65852350114574"/>
    <line class="link" targetId="16" sourceId="17" x1="418.0256547575253" y1="236.25072510862148" x2="460.3204791111798" y2="195.91332475968207"/>
    <line class="link" targetId="19" sourceId="4" x1="404.132818383948" y1="180.8385319593088" x2="389.3507082211231" y2="331.17770806872545"/>
    <line class="link" targetId="20" sourceId="1" x1="375.1673270543005" y1="276.36470748724633" x2="278.6985939086632" y2="299.65852350114574"/>
    <line class="link" targetId="20" sourceId="6" x1="375.1673270543005" y1="276.36470748724633" x2="225.07684094606753" y2="282.16662623395763"/>
    <line class="link" targetId="21" sourceId="4" x1="474.04291598845333" y1="252.46071202653778" x2="389.3507082211231" y2="331.17770806872545"/>
    <line class="link" targetId="1" sourceId="4" x1="278.6985939086632" y1="299.65852350114574" x2="389.3507082211231" y2="331.17770806872545"/>
    <line class="link" targetId="1" sourceId="6" x1="278.6985939086632" y1="299.65852350114574" x2="225.07684094606753" y2="282.16662623395763"/>
    <line class="link" targetId="22" sourceId="1" x1="403.18534132388976" y1="386.6798578785312" x2="278.6985939086632" y2="299.65852350114574"/>
    <line class="link" targetId="22" sourceId="4" x1="403.18534132388976" y1="386.6798578785312" x2="389.3507082211231" y2="331.17770806872545"/>
    <line class="link" targetId="23" sourceId="1" x1="292.4145106947073" y1="354.63280385089814" x2="278.6985939086632" y2="299.65852350114574"/>
    <line class="link" targetId="23" sourceId="24" x1="292.4145106947073" y1="354.63280385089814" x2="196.47000082407453" y2="377.5080098170241"/>
    <line class="link" targetId="25" sourceId="4" x1="431.20191601955423" y1="291.9587546661962" x2="389.3507082211231" y2="331.17770806872545"/>
    <line class="link" targetId="26" sourceId="1" x1="251.5661223866615" y1="394.1514908369143" x2="278.6985939086632" y2="299.65852350114574"/>
    <line class="link" targetId="26" sourceId="4" x1="251.5661223866615" y1="394.1514908369143" x2="389.3507082211231" y2="331.17770806872545"/>
    <line class="link" targetId="27" sourceId="1" x1="320.4001362136688" y1="467.12809862723645" x2="278.6985939086632" y2="299.65852350114574"/>
    <line class="link" targetId="28" sourceId="4" x1="487.6057100240586" y1="308.40226997245094" x2="389.3507082211231" y2="331.17770806872545"/>
    <line class="link" targetId="12" sourceId="4" x1="501.70556574898023" y1="364.501194539909" x2="389.3507082211231" y2="331.17770806872545"/>
    <line class="link" targetId="2" sourceId="1" x1="306.84956993377097" y1="409.6830546869418" x2="278.6985939086632" y2="299.65852350114574"/>
    <line class="link" targetId="2" sourceId="0" x1="306.84956993377097" y1="409.6830546869418" x2="361.95587703277243" y2="221.4962274736456"/>
    <line class="link" targetId="29" sourceId="30" x1="278.9011367432861" y1="136.69684030658505" x2="253.3236682819913" y2="187.53159068075786"/>
    <line class="link" targetId="31" sourceId="1" x1="264.95796288631425" y1="450.50560494746685" x2="278.6985939086632" y2="299.65852350114574"/>
    <line class="link" targetId="32" sourceId="1" x1="209.45621124763738" y1="434.24573848544804" x2="278.6985939086632" y2="299.65852350114574"/>
    <line class="link" targetId="33" sourceId="1" x1="153.80254383971348" y1="417.67495896421417" x2="278.6985939086632" y2="299.65852350114574"/>
    <line class="link" targetId="34" sourceId="4" x1="458.66520972855466" y1="403.12918912455314" x2="389.3507082211231" y2="331.17770806872545"/>
    <line class="link" targetId="35" sourceId="1" x1="237.65005564415512" y1="338.297666096792" x2="278.6985939086632" y2="299.65852350114574"/>
    <line class="link" targetId="35" sourceId="4" x1="237.65005564415512" y1="338.297666096792" x2="389.3507082211231" y2="331.17770806872545"/>
    <line class="link" targetId="24" sourceId="1" x1="196.47000082407453" y1="377.5080098170241" x2="278.6985939086632" y2="299.65852350114574"/>
    <line class="link" targetId="6" sourceId="1" x1="225.07684094606753" y1="282.16662623395763" x2="278.6985939086632" y2="299.65852350114574"/>
    <line class="link" targetId="36" sourceId="1" x1="140.72068084208544" y1="361.1040593305737" x2="278.6985939086632" y2="299.65852350114574"/>
    <line class="link" targetId="37" sourceId="1" x1="126.35056920979343" y1="305.12806235991565" x2="278.6985939086632" y2="299.65852350114574"/>
    <line class="link" targetId="38" sourceId="1" x1="167.9536649066803" y1="264.65967737397017" x2="278.6985939086632" y2="299.65852350114574"/>
    <line class="link" targetId="38" sourceId="18" x1="167.9536649066803" y1="264.65967737397017" x2="111.80721055894145" y2="248.74132119835255"/>
    <line class="link" targetId="39" sourceId="1" x1="211.31659729922853" y1="226.6644652907471" x2="278.6985939086632" y2="299.65852350114574"/>
    <line class="link" targetId="39" sourceId="4" x1="211.31659729922853" y1="226.6644652907471" x2="389.3507082211231" y2="331.17770806872545"/>
    <line class="link" targetId="40" sourceId="4" x1="473.7636703545135" y1="458.9916487972347" x2="389.3507082211231" y2="331.17770806872545"/>
    <line class="link" targetId="41" sourceId="4" x1="417.1784180344881" y1="443.7119354291069" x2="389.3507082211231" y2="331.17770806872545"/>
    <line class="link" targetId="43" sourceId="42" x1="246.8335326233302" y1="71.0046339775933" x2="208.63261951795738" y2="114.11491979484106"/>
    <line class="link" targetId="9" sourceId="1" x1="143.70241582666594" y1="151.724109450694" x2="278.6985939086632" y2="299.65852350114574"/>
    <line class="link" targetId="30" sourceId="1" x1="253.3236682819913" y1="187.53159068075786" x2="278.6985939086632" y2="299.65852350114574"/>
    <line class="link" targetId="30" sourceId="29" x1="253.3236682819913" y1="187.53159068075786" x2="278.9011367432861" y2="136.69684030658505"/>
    <line class="link" targetId="30" sourceId="6" x1="253.3236682819913" y1="187.53159068075786" x2="225.07684094606753" y2="282.16662623395763"/>
    <line class="link" targetId="44" sourceId="9" x1="153.46842517608783" y1="208.0492846573148" x2="143.70241582666594" y2="151.724109450694"/>
    <line class="link" targetId="45" sourceId="4" x1="348.4006549023159" y1="370.8222218979191" x2="389.3507082211231" y2="331.17770806872545"/>
    <line class="link" targetId="46" sourceId="1" x1="198.55746887825154" y1="170.82733339303377" x2="278.6985939086632" y2="299.65852350114574"/>
    <line class="link" targetId="46" sourceId="42" x1="198.55746887825154" y1="170.82733339303377" x2="208.63261951795738" y2="114.11491979484106"/>
    <line class="link" targetId="46" sourceId="39" x1="198.55746887825154" y1="170.82733339303377" x2="211.31659729922853" y2="226.6644652907471"/>
    <line class="link" targetId="47" sourceId="4" x1="362.0893836972178" y1="426.9592906749516" x2="389.3507082211231" y2="331.17770806872545"/>
    <line class="link" targetId="48" sourceId="4" x1="266.14133851308463" y1="243.77444891825792" x2="389.3507082211231" y2="331.17770806872545"/>
    <line class="link" targetId="48" sourceId="1" x1="266.14133851308463" y1="243.77444891825792" x2="278.6985939086632" y2="299.65852350114574"/>
    <line class="link" targetId="48" sourceId="6" x1="266.14133851308463" y1="243.77444891825792" x2="225.07684094606753" y2="282.16662623395763"/>
  </g>
  <g class="nodes">
    <g id="0"
        onmouseover="mo(this)" onmouseout="mleave(this)">
      <circle class="node" r="20.1" cx="361.95587703277243" cy="221.4962274736456" fill="#3182BD"><title>environmental-applications-reference-thesaurus</title></circle>
      <a class="bubble" href="https://lod-cloud.net/dataset/environmental-applications-reference-thesaurus" target="_blank">
          <text x="361.95587703277243" y="221.4962274736456">EARTh</text>
      </a>
    </g>
    <g id="1"
        onmouseover="mo(this)" onmouseout="mleave(this)">
      <circle class="node" r="25.0" cx="278.6985939086632" cy="299.65852350114574" fill="#3182BD"><title>dbpedia</title></circle>
      <a class="bubble" href="https://lod-cloud.net/dataset/dbpedia" target="_blank">
          <text x="278.6985939086632" y="299.65852350114574">DBpedia</text>
      </a>
    </g>
    <g id="2"
        onmouseover="mo(this)" onmouseout="mleave(this)">
      <circle class="node" r="20.6" cx="306.84956993377097" cy="409.6830546869418" fill="#3182BD"><title>thist</title></circle>
      <a class="bubble" href="https://lod-cloud.net/dataset/thist" target="_blank">
          <text x="306.84956993377097" y="409.6830546869418">ThIST</text>
      </a>
    </g>
    <g id="3"
        onmouseover="mo(this)" onmouseout="mleave(this)">
      <circle class="node" r="15.0" cx="307.5226858291668" cy="204.77893902501387" fill="#3182BD"><title>greek-administrative-geography</title></circle>
      <a class="bubble" href="https://lod-cloud.net/dataset/greek-administrative-geography" target="_blank">
          <text x="307.5226858291668" y="204.77893902501387">greek-...</text>
      </a>
    </g>
    <g id="4"
        onmouseover="mo(this)" onmouseout="mleave(this)">
      <circle class="node" r="23.0" cx="389.3507082211231" cy="331.17770806872545" fill="#3182BD"><title>geonames-semantic-web</title></circle>
      <a class="bubble" href="https://lod-cloud.net/dataset/geonames-semantic-web" target="_blank">
          <text x="389.3507082211231" y="331.17770806872545">GeoNam...</text>
      </a>
    </g>
    <g id="5"
        onmouseover="mo(this)" onmouseout="mleave(this)">
      <circle class="node" r="20.1" cx="182.56927820360437" cy="320.68381412723306" fill="#3182BD"><title>osm-semantic-network</title></circle>
      <a class="bubble" href="https://lod-cloud.net/dataset/osm-semantic-network" target="_blank">
          <text x="182.56927820360437" y="320.68381412723306">OSM Se...</text>
      </a>
    </g>
    <g id="6"
        onmouseover="mo(this)" onmouseout="mleave(this)">
      <circle class="node" r="24.5" cx="225.07684094606753" cy="282.16662623395763" fill="#3182BD"><title>linkedgeodata</title></circle>
      <a class="bubble" href="https://lod-cloud.net/dataset/linkedgeodata" target="_blank">
          <text x="225.07684094606753" y="282.16662623395763">Linked...</text>
      </a>
    </g>
    <g id="7"
        onmouseover="mo(this)" onmouseout="mleave(this)">
      <circle class="node" r="15.0" cx="348.12087111478274" cy="165.30055421265467" fill="#3182BD"><title>judaicalink</title></circle>
      <a class="bubble" href="https://lod-cloud.net/dataset/judaicalink" target="_blank">
          <text x="348.12087111478274" y="165.30055421265467">Judaic...</text>
      </a>
    </g>
    <g id="8"
        onmouseover="mo(this)" onmouseout="mleave(this)">
      <circle class="node" r="22.4" cx="89.67267232341214" cy="131.75931153869575" fill="#3182BD"><title>oceandrilling-janusamp</title></circle>
      <a class="bubble" href="https://lod-cloud.net/dataset/oceandrilling-janusamp" target="_blank">
          <text x="89.67267232341214" y="131.75931153869575">Ocean ...</text>
      </a>
    </g>
    <g id="9"
        onmouseover="mo(this)" onmouseout="mleave(this)">
      <circle class="node" r="22.4" cx="143.70241582666594" cy="151.724109450694" fill="#3182BD"><title>oceandrilling-codices</title></circle>
      <a class="bubble" href="https://lod-cloud.net/dataset/oceandrilling-codices" target="_blank">
          <text x="143.70241582666594" y="151.724109450694">Ocean ...</text>
      </a>
    </g>
    <g id="10"
        onmouseover="mo(this)" onmouseout="mleave(this)">
      <circle class="node" r="22.3" cx="334.00036836140526" cy="315.7862294965206" fill="#3182BD"><title>geolinkeddata</title></circle>
      <a class="bubble" href="https://lod-cloud.net/dataset/geolinkeddata" target="_blank">
          <text x="334.00036836140526" y="315.7862294965206">GeoLin...</text>
      </a>
    </g>
    <g id="11"
        onmouseover="mo(this)" onmouseout="mleave(this)">
      <circle class="node" r="15.0" cx="558.3460235398309" cy="354.0290971340268" fill="#3182BD"><title>crowdsourcing-fb</title></circle>
      <a class="bubble" href="https://lod-cloud.net/dataset/crowdsourcing-fb" target="_blank">
          <text x="558.3460235398309" y="354.0290971340268">crowds...</text>
      </a>
    </g>
    <g id="12"
        onmouseover="mo(this)" onmouseout="mleave(this)">
      <circle class="node" r="15.0" cx="501.70556574898023" cy="364.501194539909" fill="#3182BD"><title>taiwan-geographic-names</title></circle>
      <a class="bubble" href="https://lod-cloud.net/dataset/taiwan-geographic-names" target="_blank">
          <text x="501.70556574898023" y="364.501194539909">Taiwan...</text>
      </a>
    </g>
    <g id="13"
        onmouseover="mo(this)" onmouseout="mleave(this)">
      <circle class="node" r="15.0" cx="320.10275713869987" cy="260.6928897039621" fill="#3182BD"><title>linked-logainm</title></circle>
      <a class="bubble" href="https://lod-cloud.net/dataset/linked-logainm" target="_blank">
          <text x="320.10275713869987" y="260.6928897039621">Linked...</text>
      </a>
    </g>
    <g id="14"
        onmouseover="mo(this)" onmouseout="mleave(this)">
      <circle class="node" r="15.0" cx="390.7113729284278" cy="124.63434043957989" fill="#3182BD"><title>statusnet-coreyavis-com</title></circle>
      <a class="bubble" href="https://lod-cloud.net/dataset/statusnet-coreyavis-com" target="_blank">
          <text x="390.7113729284278" y="124.63434043957989">status...</text>
      </a>
    </g>
    <g id="15"
        onmouseover="mo(this)" onmouseout="mleave(this)">
      <circle class="node" r="18.9" cx="444.94703140804313" cy="347.37388171212393" fill="#3182BD"><title>norwegian-geo-divisions</title></circle>
      <a class="bubble" href="https://lod-cloud.net/dataset/norwegian-geo-divisions" target="_blank">
          <text x="444.94703140804313" y="347.37388171212393">Norweg...</text>
      </a>
    </g>
    <g id="16"
        onmouseover="mo(this)" onmouseout="mleave(this)">
      <circle class="node" r="16.3" cx="418.0256547575253" cy="236.25072510862148" fill="#3182BD"><title>Earthquake case</title></circle>
      <a class="bubble" href="https://lod-cloud.net/dataset/Earthquake case" target="_blank">
          <text x="418.0256547575253" y="236.25072510862148">ESO</text>
      </a>
    </g>
    <g id="17"
        onmouseover="mo(this)" onmouseout="mleave(this)">
      <circle class="node" r="18.5" cx="460.3204791111798" cy="195.91332475968207" fill="#3182BD"><title>Earthquake</title></circle>
      <a class="bubble" href="https://lod-cloud.net/dataset/Earthquake" target="_blank">
          <text x="460.3204791111798" y="195.91332475968207">Emerge...</text>
      </a>
    </g>
    <g id="18"
        onmouseover="mo(this)" onmouseout="mleave(this)">
      <circle class="node" r="17.9" cx="111.80721055894145" cy="248.74132119835255" fill="#3182BD"><title>GTS-ont</title></circle>
      <a class="bubble" href="https://lod-cloud.net/dataset/GTS-ont" target="_blank">
          <text x="111.80721055894145" y="248.74132119835255">Geolog...</text>
      </a>
    </g>
    <g id="19"
        onmouseover="mo(this)" onmouseout="mleave(this)">
      <circle class="node" r="15.0" cx="404.132818383948" cy="180.8385319593088" fill="#3182BD"><title>statusnet-spraci-org</title></circle>
      <a class="bubble" href="https://lod-cloud.net/dataset/statusnet-spraci-org" target="_blank">
          <text x="404.132818383948" y="180.8385319593088">status...</text>
      </a>
    </g>
    <g id="20"
        onmouseover="mo(this)" onmouseout="mleave(this)">
      <circle class="node" r="15.0" cx="375.1673270543005" cy="276.36470748724633" fill="#3182BD"><title>ispra-lod-place</title></circle>
      <a class="bubble" href="https://lod-cloud.net/dataset/ispra-lod-place" target="_blank">
          <text x="375.1673270543005" y="276.36470748724633">ISPRA ...</text>
      </a>
    </g>
    <g id="21"
        onmouseover="mo(this)" onmouseout="mleave(this)">
      <circle class="node" r="22.7" cx="474.04291598845333" cy="252.46071202653778" fill="#3182BD"><title>geowordnet</title></circle>
      <a class="bubble" href="https://lod-cloud.net/dataset/geowordnet" target="_blank">
          <text x="474.04291598845333" y="252.46071202653778">GeoWor...</text>
      </a>
    </g>
    <g id="22"
        onmouseover="mo(this)" onmouseout="mleave(this)">
      <circle class="node" r="23.5" cx="403.18534132388976" cy="386.6798578785312" fill="#3182BD"><title>near</title></circle>
      <a class="bubble" href="https://lod-cloud.net/dataset/near" target="_blank">
          <text x="403.18534132388976" y="386.6798578785312">Near</text>
      </a>
    </g>
    <g id="23"
        onmouseover="mo(this)" onmouseout="mleave(this)">
      <circle class="node" r="15.0" cx="292.4145106947073" cy="354.63280385089814" fill="#3182BD"><title>eea-vocabularies</title></circle>
      <a class="bubble" href="https://lod-cloud.net/dataset/eea-vocabularies" target="_blank">
          <text x="292.4145106947073" y="354.63280385089814">EEA Vo...</text>
      </a>
    </g>
    <g id="24"
        onmouseover="mo(this)" onmouseout="mleave(this)">
      <circle class="node" r="19.4" cx="196.47000082407453" cy="377.5080098170241" fill="#3182BD"><title>fao-geopolitical-ontology</title></circle>
      <a class="bubble" href="https://lod-cloud.net/dataset/fao-geopolitical-ontology" target="_blank">
          <text x="196.47000082407453" y="377.5080098170241">FAO ge...</text>
      </a>
    </g>
    <g id="25"
        onmouseover="mo(this)" onmouseout="mleave(this)">
      <circle class="node" r="21.7" cx="431.20191601955423" cy="291.9587546661962" fill="#3182BD"><title>riese</title></circle>
      <a class="bubble" href="https://lod-cloud.net/dataset/riese" target="_blank">
          <text x="431.20191601955423" y="291.9587546661962">RDFizi...</text>
      </a>
    </g>
    <g id="26"
        onmouseover="mo(this)" onmouseout="mleave(this)">
      <circle class="node" r="20.9" cx="251.5661223866615" cy="394.1514908369143" fill="#3182BD"><title>lobid-organisations</title></circle>
      <a class="bubble" href="https://lod-cloud.net/dataset/lobid-organisations" target="_blank">
          <text x="251.5661223866615" y="394.1514908369143">lobid-...</text>
      </a>
    </g>
    <g id="27"
        onmouseover="mo(this)" onmouseout="mleave(this)">
      <circle class="node" r="17.6" cx="320.4001362136688" cy="467.12809862723645" fill="#3182BD"><title>the-view-from</title></circle>
      <a class="bubble" href="https://lod-cloud.net/dataset/the-view-from" target="_blank">
          <text x="320.4001362136688" y="467.12809862723645">The Vi...</text>
      </a>
    </g>
    <g id="28"
        onmouseover="mo(this)" onmouseout="mleave(this)">
      <circle class="node" r="20.2" cx="487.6057100240586" cy="308.40226997245094" fill="#3182BD"><title>grrp</title></circle>
      <a class="bubble" href="https://lod-cloud.net/dataset/grrp" target="_blank">
          <text x="487.6057100240586" y="308.40226997245094">Accomm...</text>
      </a>
    </g>
    <g id="29"
        onmouseover="mo(this)" onmouseout="mleave(this)">
      <circle class="node" r="19.2" cx="278.9011367432861" cy="136.69684030658505" fill="#3182BD"><title>linkedcrowdsourceddata</title></circle>
      <a class="bubble" href="https://lod-cloud.net/dataset/linkedcrowdsourceddata" target="_blank">
          <text x="278.9011367432861" y="136.69684030658505">Linked...</text>
      </a>
    </g>
    <g id="30"
        onmouseover="mo(this)" onmouseout="mleave(this)">
      <circle class="node" r="22.3" cx="253.3236682819913" cy="187.53159068075786" fill="#3182BD"><title>openmobilenetwork</title></circle>
      <a class="bubble" href="https://lod-cloud.net/dataset/openmobilenetwork" target="_blank">
          <text x="253.3236682819913" y="187.53159068075786">OpenMo...</text>
      </a>
    </g>
    <g id="31"
        onmouseover="mo(this)" onmouseout="mleave(this)">
      <circle class="node" r="20.5" cx="264.95796288631425" cy="450.50560494746685" fill="#3182BD"><title>nuts-geovocab</title></circle>
      <a class="bubble" href="https://lod-cloud.net/dataset/nuts-geovocab" target="_blank">
          <text x="264.95796288631425" y="450.50560494746685">NUTS (...</text>
      </a>
    </g>
    <g id="32"
        onmouseover="mo(this)" onmouseout="mleave(this)">
      <circle class="node" r="21.4" cx="209.45621124763738" cy="434.24573848544804" fill="#3182BD"><title>pleiades</title></circle>
      <a class="bubble" href="https://lod-cloud.net/dataset/pleiades" target="_blank">
          <text x="209.45621124763738" y="434.24573848544804">Pleiades</text>
      </a>
    </g>
    <g id="33"
        onmouseover="mo(this)" onmouseout="mleave(this)">
      <circle class="node" r="20.6" cx="153.80254383971348" cy="417.67495896421417" fill="#3182BD"><title>grrt</title></circle>
      <a class="bubble" href="https://lod-cloud.net/dataset/grrt" target="_blank">
          <text x="153.80254383971348" y="417.67495896421417">Accomm...</text>
      </a>
    </g>
    <g id="34"
        onmouseover="mo(this)" onmouseout="mleave(this)">
      <circle class="node" r="15.0" cx="458.66520972855466" cy="403.12918912455314" fill="#3182BD"><title>statusnet-hii-co-il</title></circle>
      <a class="bubble" href="https://lod-cloud.net/dataset/statusnet-hii-co-il" target="_blank">
          <text x="458.66520972855466" y="403.12918912455314">status...</text>
      </a>
    </g>
    <g id="35"
        onmouseover="mo(this)" onmouseout="mleave(this)">
      <circle class="node" r="19.9" cx="237.65005564415512" cy="338.297666096792" fill="#3182BD"><title>los_metar</title></circle>
      <a class="bubble" href="https://lod-cloud.net/dataset/los_metar" target="_blank">
          <text x="237.65005564415512" y="338.297666096792">Weathe...</text>
      </a>
    </g>
    <g id="36"
        onmouseover="mo(this)" onmouseout="mleave(this)">
      <circle class="node" r="20.7" cx="140.72068084208544" cy="361.1040593305737" fill="#3182BD"><title>fishes-of-texas</title></circle>
      <a class="bubble" href="https://lod-cloud.net/dataset/fishes-of-texas" target="_blank">
          <text x="140.72068084208544" y="361.1040593305737">Fishes...</text>
      </a>
    </g>
    <g id="37"
        onmouseover="mo(this)" onmouseout="mleave(this)">
      <circle class="node" r="19.6" cx="126.35056920979343" cy="305.12806235991565" fill="#3182BD"><title>geological-survey-of-austria-thesaurus</title></circle>
      <a class="bubble" href="https://lod-cloud.net/dataset/geological-survey-of-austria-thesaurus" target="_blank">
          <text x="126.35056920979343" y="305.12806235991565">Geolog...</text>
      </a>
    </g>
    <g id="38"
        onmouseover="mo(this)" onmouseout="mleave(this)">
      <circle class="node" r="19.2" cx="167.9536649066803" cy="264.65967737397017" fill="#3182BD"><title>GTS</title></circle>
      <a class="bubble" href="https://lod-cloud.net/dataset/GTS" target="_blank">
          <text x="167.9536649066803" y="264.65967737397017">Geolog...</text>
      </a>
    </g>
    <g id="39"
        onmouseover="mo(this)" onmouseout="mleave(this)">
      <circle class="node" r="19.2" cx="211.31659729922853" cy="226.6644652907471" fill="#3182BD"><title>telegraphis</title></circle>
      <a class="bubble" href="https://lod-cloud.net/dataset/telegraphis" target="_blank">
          <text x="211.31659729922853" y="226.6644652907471">Telegr...</text>
      </a>
    </g>
    <g id="40"
        onmouseover="mo(this)" onmouseout="mleave(this)">
      <circle class="node" r="15.0" cx="473.7636703545135" cy="458.9916487972347" fill="#3182BD"><title>statusnet-ldn-fai-net</title></circle>
      <a class="bubble" href="https://lod-cloud.net/dataset/statusnet-ldn-fai-net" target="_blank">
          <text x="473.7636703545135" y="458.9916487972347">status...</text>
      </a>
    </g>
    <g id="41"
        onmouseover="mo(this)" onmouseout="mleave(this)">
      <circle class="node" r="15.0" cx="417.1784180344881" cy="443.7119354291069" fill="#3182BD"><title>eventseer</title></circle>
      <a class="bubble" href="https://lod-cloud.net/dataset/eventseer" target="_blank">
          <text x="417.1784180344881" y="443.7119354291069">Eventseer</text>
      </a>
    </g>
    <g id="42"
        onmouseover="mo(this)" onmouseout="mleave(this)">
      <circle class="node" r="21.4" cx="208.63261951795738" cy="114.11491979484106" fill="#3182BD"><title>ordnance-survey-linked-data</title></circle>
      <a class="bubble" href="https://lod-cloud.net/dataset/ordnance-survey-linked-data" target="_blank">
          <text x="208.63261951795738" y="114.11491979484106">Ordnan...</text>
      </a>
    </g>
    <g id="43"
        onmouseover="mo(this)" onmouseout="mleave(this)">
      <circle class="node" r="22.4" cx="246.8335326233302" cy="71.0046339775933" fill="#3182BD"><title>uk-postcodes</title></circle>
      <a class="bubble" href="https://lod-cloud.net/dataset/uk-postcodes" target="_blank">
          <text x="246.8335326233302" y="71.0046339775933">UK Pos...</text>
      </a>
    </g>
    <g id="44"
        onmouseover="mo(this)" onmouseout="mleave(this)">
      <circle class="node" r="22.4" cx="153.46842517608783" cy="208.0492846573148" fill="#3182BD"><title>oceandrilling-forams</title></circle>
      <a class="bubble" href="https://lod-cloud.net/dataset/oceandrilling-forams" target="_blank">
          <text x="153.46842517608783" y="208.0492846573148">Ocean ...</text>
      </a>
    </g>
    <g id="45"
        onmouseover="mo(this)" onmouseout="mleave(this)">
      <circle class="node" r="20.2" cx="348.4006549023159" cy="370.8222218979191" fill="#3182BD"><title>Uganda-Disasters-rdf-data </title></circle>
      <a class="bubble" href="https://lod-cloud.net/dataset/Uganda-Disasters-rdf-data " target="_blank">
          <text x="348.4006549023159" y="370.8222218979191">Uganda...</text>
      </a>
    </g>
    <g id="46"
        onmouseover="mo(this)" onmouseout="mleave(this)">
      <circle class="node" r="22.7" cx="198.55746887825154" cy="170.82733339303377" fill="#3182BD"><title>yahoo_geoplanet</title></circle>
      <a class="bubble" href="https://lod-cloud.net/dataset/yahoo_geoplanet" target="_blank">
          <text x="198.55746887825154" y="170.82733339303377">Yahoo ...</text>
      </a>
    </g>
    <g id="47"
        onmouseover="mo(this)" onmouseout="mleave(this)">
      <circle class="node" r="15.0" cx="362.0893836972178" cy="426.9592906749516" fill="#3182BD"><title>knoesis-linked-sensor-data</title></circle>
      <a class="bubble" href="https://lod-cloud.net/dataset/knoesis-linked-sensor-data" target="_blank">
          <text x="362.0893836972178" y="426.9592906749516">Linked...</text>
      </a>
    </g>
    <g id="48"
        onmouseover="mo(this)" onmouseout="mleave(this)">
      <circle class="node" r="23.6" cx="266.14133851308463" cy="243.77444891825792" fill="#3182BD"><title>Smart POI dataset</title></circle>
      <a class="bubble" href="https://lod-cloud.net/dataset/Smart POI dataset" target="_blank">
          <text x="266.14133851308463" y="243.77444891825792">Smart ...</text>
      </a>
    </g>
    <g transform="translate(20,617) scale(0.9453781512605043)">
      <text style="font-family: Verdana, Arial;">The Geography Linked Open Data Cloud from lod-cloud.net</text>
    </g>
      <g transform="translate(480, 600)">
<svg
   xmlns:dc="http://purl.org/dc/elements/1.1/"
   xmlns:cc="http://web.resource.org/cc/"
   xmlns:rdf="http://www.w3.org/1999/02/22-rdf-syntax-ns#"
   xmlns:svg="http://www.w3.org/2000/svg"
   xmlns="http://www.w3.org/2000/svg"
   xmlns:sodipodi="http://sodipodi.sourceforge.net/DTD/sodipodi-0.dtd"
   xmlns:inkscape="http://www.inkscape.org/namespaces/inkscape"
   width="120"
   height="42"
   id="svg2759"
   sodipodi:version="0.32"
   inkscape:version="0.45+devel"
   version="1.0"
   sodipodi:docname="by.svg"
   inkscape:output_extension="org.inkscape.output.svg.inkscape">
  <defs
     id="defs2761" />
  <sodipodi:namedview
     id="base"
     pagecolor="#ffffff"
     bordercolor="#8b8b8b"
     borderopacity="1"
     gridtolerance="10000"
     guidetolerance="10"
     objecttolerance="10"
     inkscape:pageopacity="0.0"
     inkscape:pageshadow="2"
     inkscape:zoom="1"
     inkscape:cx="179"
     inkscape:cy="89.569904"
     inkscape:document-units="px"
     inkscape:current-layer="layer1"
     width="120px"
     height="42px"
     inkscape:showpageshadow="false"
     inkscape:window-width="1198"
     inkscape:window-height="624"
     inkscape:window-x="396"
     inkscape:window-y="242" />
  <metadata
     id="metadata2764">
    <rdf:RDF>
      <cc:Work
         rdf:about="">
        <dc:format>image/svg+xml</dc:format>
        <dc:type
           rdf:resource="http://purl.org/dc/dcmitype/StillImage" />
      </cc:Work>
    </rdf:RDF>
  </metadata>
  <g
     inkscape:label="Layer 1"
     inkscape:groupmode="layer"
     id="layer1">
    <g
       transform="matrix(0.9937728,0,0,0.9936696,-177.69267,6.25128e-7)"
       id="g260"
       inkscape:export-filename="/mnt/hgfs/Bov/Documents/Work/2007/cc/identity/srr buttons/big/by.png"
       inkscape:export-xdpi="300.23013"
       inkscape:export-ydpi="300.23013">
	<path
   id="path3817_1_"
   nodetypes="ccccccc"
   d="M 181.96579,0.51074 L 296.02975,0.71338 C 297.6235,0.71338 299.04733,0.47705 299.04733,3.89404 L 298.90768,41.46093 L 179.08737,41.46093 L 179.08737,3.75439 C 179.08737,2.06934 179.25046,0.51074 181.96579,0.51074 z"
   style="fill:#aab2ab" />

	<path
   d="M 297.29636,0 L 181.06736,0 C 179.82078,0 178.80613,1.01416 178.80613,2.26074 L 178.80613,41.75732 C 178.80613,42.03906 179.03513,42.26757 179.31687,42.26757 L 299.04734,42.26757 C 299.32908,42.26757 299.55808,42.03905 299.55808,41.75732 L 299.55808,2.26074 C 299.55807,1.01416 298.54343,0 297.29636,0 z M 181.06735,1.02148 L 297.29635,1.02148 C 297.98043,1.02148 298.53658,1.57714 298.53658,2.26074 C 298.53658,2.26074 298.53658,18.20898 298.53658,29.71045 L 215.19234,29.71045 C 212.14742,35.21631 206.28121,38.95459 199.54879,38.95459 C 192.81344,38.95459 186.94869,35.21973 183.90524,29.71045 L 179.8276,29.71045 C 179.8276,18.20899 179.8276,2.26074 179.8276,2.26074 C 179.82761,1.57715 180.38376,1.02148 181.06735,1.02148 z"
   id="path263" />

	<g
   enable-background="new    "
   id="g265">
		<path
   d="M 253.07761,32.95605 C 253.39499,32.95605 253.68503,32.98437 253.94773,33.04003 C 254.20945,33.09569 254.43308,33.18749 254.62058,33.31542 C 254.8071,33.44237 254.95261,33.6123 255.05515,33.82323 C 255.15769,34.03514 255.20945,34.29589 255.20945,34.60741 C 255.20945,34.94335 255.13328,35.22264 254.97996,35.44628 C 254.82762,35.67089 254.60105,35.85351 254.30223,35.99706 C 254.71434,36.11522 255.02196,36.32226 255.22508,36.61815 C 255.4282,36.91404 255.52977,37.27049 255.52977,37.68749 C 255.52977,38.02343 255.46434,38.31444 255.33348,38.56054 C 255.20262,38.80566 255.02586,39.00683 254.80516,39.1621 C 254.58348,39.31835 254.33055,39.43358 254.04735,39.5078 C 253.76317,39.583 253.47215,39.6201 253.17235,39.6201 L 249.936,39.6201 L 249.936,32.95604 L 253.07761,32.95604 L 253.07761,32.95605 z M 252.89011,35.65137 C 253.15183,35.65137 253.36667,35.58887 253.53562,35.46485 C 253.70359,35.34083 253.78757,35.13965 253.78757,34.86036 C 253.78757,34.70509 253.75925,34.57716 253.70359,34.47852 C 253.64695,34.37891 253.57273,34.30176 253.47898,34.24512 C 253.38523,34.18946 253.27781,34.15039 253.15671,34.12891 C 253.03561,34.10743 252.90866,34.09668 252.77878,34.09668 L 251.40476,34.09668 L 251.40476,35.65137 L 252.89011,35.65137 z M 252.97604,38.47949 C 253.11959,38.47949 253.25631,38.46582 253.38717,38.4375 C 253.51803,38.40918 253.63326,38.3623 253.73385,38.29785 C 253.83346,38.23242 253.91256,38.14355 253.97213,38.03125 C 254.0317,37.91992 254.061,37.77637 254.061,37.60254 C 254.061,37.26074 253.96432,37.0166 253.77096,36.87012 C 253.5776,36.72461 253.32174,36.65137 253.00436,36.65137 L 251.40475,36.65137 L 251.40475,38.47949 L 252.97604,38.47949 z"
   id="path267"
   style="fill:#ffffff" />

		<path
   d="M 255.78854,32.95605 L 257.43209,32.95605 L 258.99264,35.58789 L 260.54342,32.95605 L 262.17721,32.95605 L 259.70358,37.0625 L 259.70358,39.62012 L 258.23483,39.62012 L 258.23483,37.02539 L 255.78854,32.95605 z"
   id="path269"
   style="fill:#ffffff" />

	</g>

	<g
   id="g5908_1_"
   transform="matrix(0.872921,0,0,0.872921,50.12536,143.2144)">
		
			<path
   id="path5906_1_"
   cx="296.35416"
   ry="22.939548"
   cy="264.3577"
   type="arc"
   rx="22.939548"
   d="M 186.90065,-141.46002 C 186.90623,-132.77923 179.87279,-125.73852 171.19257,-125.73291 C 162.51235,-125.72736 155.47051,-132.76025 155.46547,-141.44098 C 155.46547,-141.44714 155.46547,-141.45331 155.46547,-141.46002 C 155.46043,-150.14081 162.49333,-157.18152 171.17355,-157.18658 C 179.8549,-157.19213 186.89561,-150.15924 186.90065,-141.47845 C 186.90065,-141.4729 186.90065,-141.46619 186.90065,-141.46002 z"
   style="fill:#ffffff" />

		<g
   id="g5706_1_"
   transform="translate(-289.6157,99.0653)">
			<path
   id="path5708_1_"
   d="M 473.57574,-253.32751 C 477.06115,-249.8421 478.80413,-245.5736 478.80413,-240.52532 C 478.80413,-235.47594 477.09136,-231.25329 473.66582,-227.85741 C 470.03051,-224.28081 465.734,-222.49309 460.77635,-222.49309 C 455.87858,-222.49309 451.65648,-224.26628 448.11122,-227.81261 C 444.56541,-231.35845 442.79277,-235.59563 442.79277,-240.52532 C 442.79277,-245.45391 444.56541,-249.7213 448.11122,-253.32751 C 451.56642,-256.81402 455.7885,-258.557 460.77635,-258.557 C 465.82465,-258.55701 470.09039,-256.81403 473.57574,-253.32751 z M 450.45776,-250.98267 C 447.51104,-248.00629 446.03823,-244.51978 446.03823,-240.52033 C 446.03823,-236.52198 447.49651,-233.06507 450.41247,-230.14966 C 453.32897,-227.23316 456.80096,-225.77545 460.82952,-225.77545 C 464.85808,-225.77545 468.35967,-227.24768 471.33605,-230.19385 C 474.16198,-232.9303 475.57549,-236.37091 475.57549,-240.52033 C 475.57549,-244.63837 474.13903,-248.13379 471.26781,-251.00501 C 468.39714,-253.87568 464.9179,-255.31159 460.82952,-255.31159 C 456.74112,-255.31158 453.28314,-253.86841 450.45776,-250.98267 z M 458.21225,-242.27948 C 457.76196,-243.26117 457.08795,-243.75232 456.18903,-243.75232 C 454.59986,-243.75232 453.80558,-242.68225 453.80558,-240.54321 C 453.80558,-238.40368 454.59986,-237.33471 456.18903,-237.33471 C 457.23841,-237.33471 457.98795,-237.85546 458.43769,-238.89922 L 460.64045,-237.72625 C 459.59052,-235.86077 458.01536,-234.92779 455.91496,-234.92779 C 454.29506,-234.92779 452.99733,-235.42449 452.0229,-236.4168 C 451.0468,-237.41021 450.56016,-238.77953 450.56016,-240.52532 C 450.56016,-242.24035 451.06245,-243.60186 452.06764,-244.61034 C 453.07283,-245.61888 454.32466,-246.12291 455.82545,-246.12291 C 458.04557,-246.12291 459.63526,-245.24803 460.59626,-243.50005 L 458.21225,-242.27948 z M 468.57562,-242.27948 C 468.12475,-243.26117 467.46417,-243.75232 466.5932,-243.75232 C 464.97217,-243.75232 464.16107,-242.68225 464.16107,-240.54321 C 464.16107,-238.40368 464.97217,-237.33471 466.5932,-237.33471 C 467.64429,-237.33471 468.38037,-237.85546 468.80048,-238.89922 L 471.05249,-237.72625 C 470.00421,-235.86077 468.43127,-234.92779 466.33478,-234.92779 C 464.7171,-234.92779 463.42218,-235.42449 462.44831,-236.4168 C 461.47614,-237.41021 460.98896,-238.77953 460.98896,-240.52532 C 460.98896,-242.24035 461.48341,-243.60186 462.47181,-244.61034 C 463.45966,-245.61888 464.71711,-246.12291 466.24531,-246.12291 C 468.4615,-246.12291 470.04896,-245.24803 471.0066,-243.50005 L 468.57562,-242.27948 z" />

		</g>

	</g>

	<g
   id="g275">
		<circle
   cx="255.55124"
   cy="15.31348"
   r="10.80664"
   id="circle277"
   sodipodi:cx="255.55124"
   sodipodi:cy="15.31348"
   sodipodi:rx="10.80664"
   sodipodi:ry="10.80664"
   style="fill:#ffffff" />

		<g
   id="g279">
			<path
   d="M 258.67819,12.18701 C 258.67819,11.77051 258.3403,11.4331 257.92526,11.4331 L 253.15182,11.4331 C 252.73678,11.4331 252.39889,11.7705 252.39889,12.18701 L 252.39889,16.95996 L 253.72994,16.95996 L 253.72994,22.61182 L 257.34713,22.61182 L 257.34713,16.95996 L 258.67818,16.95996 L 258.67818,12.18701 L 258.67819,12.18701 z"
   id="path281" />

			<circle
   cx="255.53854"
   cy="9.1723604"
   r="1.63281"
   id="circle283"
   sodipodi:cx="255.53854"
   sodipodi:cy="9.1723604"
   sodipodi:rx="1.63281"
   sodipodi:ry="1.63281" />

		</g>

		<path
   clip-rule="evenodd"
   d="M 255.5239,3.40723 C 252.29148,3.40723 249.55515,4.53516 247.31589,6.79102 C 245.01804,9.12452 243.8696,11.88672 243.8696,15.07569 C 243.8696,18.26466 245.01804,21.00733 247.31589,23.30225 C 249.61374,25.59668 252.35007,26.74414 255.5239,26.74414 C 258.73679,26.74414 261.52195,25.58789 263.87742,23.27295 C 266.09715,21.07568 267.2075,18.34326 267.2075,15.07568 C 267.2075,11.8081 266.07762,9.04687 263.8198,6.79101 C 261.56003,4.53516 258.79538,3.40723 255.5239,3.40723 z M 255.55319,5.50684 C 258.20163,5.50684 260.45065,6.44092 262.30026,8.30811 C 264.1694,10.15528 265.10397,12.41114 265.10397,15.07569 C 265.10397,17.75928 264.18893,19.98633 262.35885,21.75587 C 260.43014,23.66212 258.16256,24.61476 255.55319,24.61476 C 252.94284,24.61476 250.69381,23.67189 248.80612,21.78517 C 246.91647,19.89845 245.97311,17.66212 245.97311,15.0757 C 245.97311,12.48879 246.92721,10.23341 248.83541,8.30812 C 250.6655,6.44092 252.90475,5.50684 255.55319,5.50684 z"
   id="path285"
   style="fill-rule:evenodd" />

	</g>

</g>
  </g>
</svg>

      </g>
  </g>
</svg>
